<?xml version="1.0" encoding="UTF-8" standalone="no"?>
<svg width="36px" height="36px" viewBox="0 0 36 36" version="1.1" xmlns="http://www.w3.org/2000/svg" xmlns:xlink="http://www.w3.org/1999/xlink">
    <!-- Generator: Sketch 3.6.1 (26313) - http://www.bohemiancoding.com/sketch -->
    <title>close</title>
    <desc>Created with Sketch.</desc>
    <defs></defs>
    <g id="Page-1" stroke="none" stroke-width="1" fill="none" fill-rule="evenodd">
        <g id="close" transform="translate(-1376.000000, -28.000000)" fill="#FFFFFF">
            <g id="close" transform="translate(1125.000000, 0.000000)">
                <g id="close" transform="translate(251.000000, 28.000000)">
                    <path d="M18,35.8815789 C8.08211921,35.8815789 0,27.8526316 0,18 C0,8.14736842 8.08211921,0.118421053 18,0.118421053 C27.9178808,0.118421053 36,8.14736842 36,18 C36,27.8526316 27.9178808,35.8815789 18,35.8815789 L18,35.8815789 Z M18,2.32105263 C9.29801325,2.32105263 2.21721854,9.35526316 2.21721854,18 C2.21721854,26.6447368 9.29801325,33.6789474 18,33.6789474 C26.7019868,33.6789474 33.7827815,26.6447368 33.7827815,18 C33.7827815,9.35526316 26.7019868,2.32105263 18,2.32105263 L18,2.32105263 Z" id="Shape"></path>
                    <path d="M23.9602649,13.6421053 L22.386755,12.0789474 L18,16.4368421 L13.613245,12.0789474 L12.0397351,13.6421053 L16.4264901,18 L12.0397351,22.3578947 L13.613245,23.8973684 L18,19.5394737 L22.386755,23.8973684 L23.9602649,22.3578947 L19.5735099,18 L23.9602649,13.6421053 Z" id="Shape"></path>
                </g>
            </g>
        </g>
    </g>
</svg>